<svg width="193" height="39" viewBox="0 0 193 39" fill="none" xmlns="http://www.w3.org/2000/svg">
<path d="M26.8964 0L26.8964 27.4559H0L26.8964 0Z" fill="#6075AA"/>
<path d="M42.324 26.7803L45.636 14.1803H49.776L53.088 26.7803H50.64L49.956 24.0083H45.456L44.772 26.7803H42.324ZM46.014 21.8123H49.398L47.868 15.6743H47.544L46.014 21.8123ZM59.4312 26.7803C58.8432 26.7803 58.3632 26.6003 57.9912 26.2403C57.6312 25.8683 57.4512 25.3763 57.4512 24.7643V19.7243H55.2192V17.8523H57.4512V15.0803H59.7192V17.8523H62.1672V19.7243H59.7192V24.3683C59.7192 24.7283 59.8872 24.9083 60.2232 24.9083H61.9512V26.7803H59.4312ZM69.9518 27.0323C69.0638 27.0323 68.2658 26.8523 67.5578 26.4923C66.8498 26.1323 66.2918 25.6103 65.8838 24.9263C65.4758 24.2423 65.2718 23.4203 65.2718 22.4603V22.1723C65.2718 21.2123 65.4758 20.3903 65.8838 19.7063C66.2918 19.0223 66.8498 18.5003 67.5578 18.1403C68.2658 17.7803 69.0638 17.6003 69.9518 17.6003C70.8398 17.6003 71.6378 17.7803 72.3458 18.1403C73.0538 18.5003 73.6118 19.0223 74.0198 19.7063C74.4278 20.3903 74.6318 21.2123 74.6318 22.1723V22.4603C74.6318 23.4203 74.4278 24.2423 74.0198 24.9263C73.6118 25.6103 73.0538 26.1323 72.3458 26.4923C71.6378 26.8523 70.8398 27.0323 69.9518 27.0323ZM69.9518 25.0163C70.6478 25.0163 71.2238 24.7943 71.6798 24.3503C72.1358 23.8943 72.3638 23.2463 72.3638 22.4063V22.2263C72.3638 21.3863 72.1358 20.7443 71.6798 20.3003C71.2358 19.8443 70.6598 19.6163 69.9518 19.6163C69.2558 19.6163 68.6798 19.8443 68.2238 20.3003C67.7678 20.7443 67.5398 21.3863 67.5398 22.2263V22.4063C67.5398 23.2463 67.7678 23.8943 68.2238 24.3503C68.6798 24.7943 69.2558 25.0163 69.9518 25.0163ZM78.5252 26.7803V17.8523H80.7572V18.8243H81.0812C81.2372 18.5243 81.4952 18.2663 81.8552 18.0503C82.2152 17.8223 82.6892 17.7083 83.2772 17.7083C83.9132 17.7083 84.4232 17.8343 84.8072 18.0863C85.1912 18.3263 85.4852 18.6443 85.6892 19.0403H86.0132C86.2172 18.6563 86.5052 18.3383 86.8772 18.0863C87.2492 17.8343 87.7772 17.7083 88.4612 17.7083C89.0132 17.7083 89.5112 17.8283 89.9552 18.0683C90.4112 18.2963 90.7712 18.6503 91.0352 19.1303C91.3112 19.5983 91.4492 20.1923 91.4492 20.9123V26.7803H89.1812V21.0743C89.1812 20.5823 89.0552 20.2163 88.8032 19.9763C88.5512 19.7243 88.1972 19.5983 87.7412 19.5983C87.2252 19.5983 86.8232 19.7663 86.5352 20.1023C86.2592 20.4263 86.1212 20.8943 86.1212 21.5063V26.7803H83.8532V21.0743C83.8532 20.5823 83.7272 20.2163 83.4752 19.9763C83.2232 19.7243 82.8692 19.5983 82.4132 19.5983C81.8972 19.5983 81.4952 19.7663 81.2072 20.1023C80.9312 20.4263 80.7932 20.8943 80.7932 21.5063V26.7803H78.5252ZM95.6885 26.7803V17.8523H97.9565V26.7803H95.6885ZM96.8225 16.8083C96.4145 16.8083 96.0665 16.6763 95.7785 16.4123C95.5025 16.1483 95.3645 15.8003 95.3645 15.3683C95.3645 14.9363 95.5025 14.5883 95.7785 14.3243C96.0665 14.0603 96.4145 13.9283 96.8225 13.9283C97.2425 13.9283 97.5905 14.0603 97.8665 14.3243C98.1425 14.5883 98.2805 14.9363 98.2805 15.3683C98.2805 15.8003 98.1425 16.1483 97.8665 16.4123C97.5905 16.6763 97.2425 16.8083 96.8225 16.8083ZM102.27 26.7803V14.1803H104.538V21.1463H104.862L107.814 17.8523H110.766L106.644 22.1723L110.91 26.7803H107.994L104.862 23.2343H104.538V26.7803H102.27ZM120.528 26.7803V14.1803H122.904V24.6203H128.664V26.7803H120.528ZM134.928 27.0323C134.292 27.0323 133.722 26.9243 133.218 26.7083C132.714 26.4803 132.312 26.1563 132.012 25.7363C131.724 25.3043 131.58 24.7823 131.58 24.1703C131.58 23.5583 131.724 23.0483 132.012 22.6403C132.312 22.2203 132.72 21.9083 133.236 21.7043C133.764 21.4883 134.364 21.3803 135.036 21.3803H137.484V20.8763C137.484 20.4563 137.352 20.1143 137.088 19.8503C136.824 19.5743 136.404 19.4363 135.828 19.4363C135.264 19.4363 134.844 19.5683 134.568 19.8323C134.292 20.0843 134.112 20.4143 134.028 20.8223L131.94 20.1203C132.084 19.6643 132.312 19.2503 132.624 18.8783C132.948 18.4943 133.374 18.1883 133.902 17.9603C134.442 17.7203 135.096 17.6003 135.864 17.6003C137.04 17.6003 137.97 17.8943 138.654 18.4823C139.338 19.0703 139.68 19.9223 139.68 21.0383V24.3683C139.68 24.7283 139.848 24.9083 140.184 24.9083H140.904V26.7803H139.392C138.948 26.7803 138.582 26.6723 138.294 26.4563C138.006 26.2403 137.862 25.9523 137.862 25.5923V25.5743H137.52C137.472 25.7183 137.364 25.9103 137.196 26.1503C137.028 26.3783 136.764 26.5823 136.404 26.7623C136.044 26.9423 135.552 27.0323 134.928 27.0323ZM135.324 25.1963C135.96 25.1963 136.476 25.0223 136.872 24.6743C137.28 24.3143 137.484 23.8403 137.484 23.2523V23.0723H135.198C134.778 23.0723 134.448 23.1623 134.208 23.3423C133.968 23.5223 133.848 23.7743 133.848 24.0983C133.848 24.4223 133.974 24.6863 134.226 24.8903C134.478 25.0943 134.844 25.1963 135.324 25.1963ZM149.726 27.0323C148.922 27.0323 148.304 26.8943 147.872 26.6183C147.44 26.3423 147.122 26.0363 146.918 25.7003H146.594V26.7803H144.362V14.1803H146.63V18.8783H146.954C147.086 18.6623 147.26 18.4583 147.476 18.2663C147.704 18.0743 147.998 17.9183 148.358 17.7983C148.73 17.6663 149.186 17.6003 149.726 17.6003C150.446 17.6003 151.112 17.7803 151.724 18.1403C152.336 18.4883 152.828 19.0043 153.2 19.6883C153.572 20.3723 153.758 21.2003 153.758 22.1723V22.4603C153.758 23.4323 153.572 24.2603 153.2 24.9443C152.828 25.6283 152.336 26.1503 151.724 26.5103C151.112 26.8583 150.446 27.0323 149.726 27.0323ZM149.042 25.0523C149.738 25.0523 150.32 24.8303 150.788 24.3863C151.256 23.9303 151.49 23.2703 151.49 22.4063V22.2263C151.49 21.3623 151.256 20.7083 150.788 20.2643C150.332 19.8083 149.75 19.5803 149.042 19.5803C148.346 19.5803 147.764 19.8083 147.296 20.2643C146.828 20.7083 146.594 21.3623 146.594 22.2263V22.4063C146.594 23.2703 146.828 23.9303 147.296 24.3863C147.764 24.8303 148.346 25.0523 149.042 25.0523ZM161.349 27.0323C160.185 27.0323 159.231 26.7803 158.487 26.2763C157.743 25.7723 157.293 25.0523 157.137 24.1163L159.225 23.5763C159.309 23.9963 159.447 24.3263 159.639 24.5663C159.843 24.8063 160.089 24.9803 160.377 25.0883C160.677 25.1843 161.001 25.2323 161.349 25.2323C161.877 25.2323 162.267 25.1423 162.519 24.9623C162.771 24.7703 162.897 24.5363 162.897 24.2603C162.897 23.9843 162.777 23.7743 162.537 23.6303C162.297 23.4743 161.913 23.3483 161.385 23.2523L160.881 23.1623C160.257 23.0423 159.687 22.8803 159.171 22.6763C158.655 22.4603 158.241 22.1663 157.929 21.7943C157.617 21.4223 157.461 20.9423 157.461 20.3543C157.461 19.4663 157.785 18.7883 158.433 18.3203C159.081 17.8403 159.933 17.6003 160.989 17.6003C161.985 17.6003 162.813 17.8223 163.473 18.2663C164.133 18.7103 164.565 19.2923 164.769 20.0123L162.663 20.6603C162.567 20.2043 162.369 19.8803 162.069 19.6883C161.781 19.4963 161.421 19.4003 160.989 19.4003C160.557 19.4003 160.227 19.4783 159.999 19.6343C159.771 19.7783 159.657 19.9823 159.657 20.2463C159.657 20.5343 159.777 20.7503 160.017 20.8943C160.257 21.0263 160.581 21.1283 160.989 21.2003L161.493 21.2903C162.165 21.4103 162.771 21.5723 163.311 21.7763C163.863 21.9683 164.295 22.2503 164.607 22.6223C164.931 22.9823 165.093 23.4743 165.093 24.0983C165.093 25.0343 164.751 25.7603 164.067 26.2763C163.395 26.7803 162.489 27.0323 161.349 27.0323Z" fill="#6075AA"/>
</svg>
