<svg width="48" height="48" viewBox="0 0 48 48" fill="none" xmlns="http://www.w3.org/2000/svg">
<path d="M40.5039 18V10.498C40.5039 9.70234 40.1878 8.93927 39.6252 8.37667C39.0626 7.81406 38.2996 7.49799 37.5039 7.49799H29.5039" stroke="url(#paint0_linear_140_2436)" stroke-width="2" stroke-linecap="round" stroke-linejoin="round"/>
<path d="M12.5039 7.49799H4.50391C3.70826 7.49799 2.9452 7.81406 2.38259 8.37667C1.81998 8.93927 1.50391 9.70234 1.50391 10.498V43.498C1.50391 44.2936 1.81998 45.0567 2.38259 45.6193C2.9452 46.1819 3.70826 46.498 4.50391 46.498H20.9999" stroke="url(#paint1_linear_140_2436)" stroke-width="2" stroke-linecap="round" stroke-linejoin="round"/>
<path d="M28.8461 9.47199C28.7464 9.77039 28.5555 10.03 28.3004 10.214C28.0452 10.3981 27.7387 10.4975 27.4241 10.498H14.5861C14.2712 10.4979 13.9642 10.3987 13.7087 10.2146C13.4531 10.0305 13.2619 9.77072 13.1621 9.47199L11.1621 3.47199C11.0865 3.24645 11.0657 3.00614 11.1015 2.77097C11.1372 2.5358 11.2284 2.31251 11.3676 2.1196C11.5068 1.92668 11.6899 1.76968 11.9018 1.66158C12.1137 1.55349 12.3482 1.49741 12.5861 1.49799H29.4241C29.6618 1.49773 29.8962 1.55404 30.1078 1.66227C30.3194 1.7705 30.5023 1.92754 30.6412 2.12041C30.7802 2.31328 30.8712 2.53645 30.9068 2.77146C30.9425 3.00648 30.9216 3.24661 30.8461 3.47199L28.8461 9.47199Z" stroke="url(#paint2_linear_140_2436)" stroke-width="2" stroke-linecap="round" stroke-linejoin="round"/>
<path d="M16.504 40.498H9C8.60218 40.498 8.22064 40.3399 7.93934 40.0586C7.65804 39.7773 7.5 39.3958 7.5 38.998V13.498" stroke="url(#paint3_linear_140_2436)" stroke-width="2" stroke-linecap="round" stroke-linejoin="round"/>
<path d="M34.5039 13.498V16.498" stroke="url(#paint4_linear_140_2436)" stroke-width="2" stroke-linecap="round" stroke-linejoin="round"/>
<path d="M22.5 34.498C22.5 37.6806 23.7643 40.7328 26.0147 42.9833C28.2652 45.2337 31.3174 46.498 34.5 46.498C37.6826 46.498 40.7348 45.2337 42.9853 42.9833C45.2357 40.7328 46.5 37.6806 46.5 34.498C46.5 31.3154 45.2357 28.2631 42.9853 26.0127C40.7348 23.7623 37.6826 22.498 34.5 22.498C31.3174 22.498 28.2652 23.7623 26.0147 26.0127C23.7643 28.2631 22.5 31.3154 22.5 34.498V34.498Z" stroke="url(#paint5_linear_140_2436)" stroke-width="2" stroke-linecap="round" stroke-linejoin="round"/>
<path d="M39.8479 31L34.0379 38.748C33.9087 38.9198 33.7441 39.0619 33.5553 39.1647C33.3665 39.2674 33.1578 39.3284 32.9433 39.3436C32.7289 39.3588 32.5137 39.3277 32.3123 39.2526C32.1109 39.1774 31.928 39.0599 31.7759 38.908L28.7759 35.908" stroke="url(#paint6_linear_140_2436)" stroke-width="2" stroke-linecap="round" stroke-linejoin="round"/>
<path d="M13.5039 19.498H22.5039" stroke="url(#paint7_linear_140_2436)" stroke-width="2" stroke-linecap="round" stroke-linejoin="round"/>
<path d="M13.5039 28.498H16.5039" stroke="url(#paint8_linear_140_2436)" stroke-width="2" stroke-linecap="round" stroke-linejoin="round"/>
<defs>
<linearGradient id="paint0_linear_140_2436" x1="34.2954" y1="-0.296468" x2="47.7656" y2="6.53019" gradientUnits="userSpaceOnUse">
<stop stop-color="#671BC9"/>
<stop offset="1" stop-color="#FD0F9E"/>
</linearGradient>
<linearGradient id="paint1_linear_140_2436" x1="9.99623" y1="-21.4473" x2="38.3437" y2="-14.5907" gradientUnits="userSpaceOnUse">
<stop stop-color="#671BC9"/>
<stop offset="1" stop-color="#FD0F9E"/>
</linearGradient>
<linearGradient id="paint2_linear_140_2436" x1="19.7263" y1="-5.18171" x2="34.0106" y2="10.0538" gradientUnits="userSpaceOnUse">
<stop stop-color="#671BC9"/>
<stop offset="1" stop-color="#FD0F9E"/>
</linearGradient>
<linearGradient id="paint3_linear_140_2436" x1="11.4221" y1="-6.54108" x2="24.9283" y2="-4.36176" gradientUnits="userSpaceOnUse">
<stop stop-color="#671BC9"/>
<stop offset="1" stop-color="#FD0F9E"/>
</linearGradient>
<linearGradient id="paint4_linear_140_2436" x1="34.9395" y1="11.2714" x2="36.4396" y2="11.5134" gradientUnits="userSpaceOnUse">
<stop stop-color="#671BC9"/>
<stop offset="1" stop-color="#FD0F9E"/>
</linearGradient>
<linearGradient id="paint5_linear_140_2436" x1="32.9542" y1="4.68548" x2="62.885" y2="19.1676" gradientUnits="userSpaceOnUse">
<stop stop-color="#671BC9"/>
<stop offset="1" stop-color="#FD0F9E"/>
</linearGradient>
<linearGradient id="paint6_linear_140_2436" x1="33.5988" y1="24.8047" x2="45.6682" y2="32.5507" gradientUnits="userSpaceOnUse">
<stop stop-color="#671BC9"/>
<stop offset="1" stop-color="#FD0F9E"/>
</linearGradient>
<linearGradient id="paint7_linear_140_2436" x1="17.4242" y1="18.7558" x2="18.1181" y2="21.7773" gradientUnits="userSpaceOnUse">
<stop stop-color="#671BC9"/>
<stop offset="1" stop-color="#FD0F9E"/>
</linearGradient>
<linearGradient id="paint8_linear_140_2436" x1="14.8107" y1="27.7558" x2="16.2968" y2="29.9129" gradientUnits="userSpaceOnUse">
<stop stop-color="#671BC9"/>
<stop offset="1" stop-color="#FD0F9E"/>
</linearGradient>
</defs>
</svg>
